<svg xmlns="http://www.w3.org/2000/svg" width="1500" height="502" fill="none"><g clip-path="url(#a)"><path fill="#D4D0CB" d="M0 0h1500v502H0V0Z"/><path fill="#888F98" d="M0 0h688l1 5h2c.231.73863.461 1.47727.699 2.23828.326 1.01449.652 2.02899.989 3.07422.313.9861.626 1.9723.949 2.9883 1.112 3.0189 2.33 5.8532 3.685 8.7651 2.495 5.4571 4.735 10.9811 6.893 16.5786.378.9723.756 1.9445 1.146 2.9462 1.195 3.0728 2.386 6.1471 3.577 9.2218 1.568 4.0493 3.14 8.0974 4.714 12.1445.375.9668.75 1.9335 1.135 2.9295 2.57 6.5914 5.327 13.0641 8.317 19.4756C724 88 724 88 724.026 90.167c-1.644 2.9374-4.043 3.6159-7.073 4.9619-.608.2758-1.216.5516-1.843.8357-1.947.8799-3.903 1.7394-5.86 2.5979-1.941.8659-3.879 1.7355-5.817 2.6085-1.767.794-3.539 1.576-5.311 2.359-2.838 1.336-5.453 2.828-8.122 4.47-1.589.682-3.194 1.328-4.812 1.938-4.565 1.72-8.85 3.845-13.188 6.062-2.624 1.336-5.249 2.669-7.875 4-.643.33-1.286.66-1.949 1-3.466 1.75-6.931 3.324-10.555 4.719-8.08 3.167-15.854 7.048-23.683 10.781-2.408 1.146-4.816 2.29-7.225 3.434-1.487.706-2.975 1.414-4.461 2.123-4.4 2.093-8.829 4.103-13.292 6.055-2.551 1.156-4.97 2.494-7.398 3.888-4.289 2.385-8.578 4.334-13.175 6.043-2.887 1.158-5.611 2.555-8.387 3.957-1.228.578-2.459 1.151-3.691 1.719-.635.292-1.27.585-1.924.886-1.302.598-2.604 1.195-3.906 1.79-2.796 1.291-5.498 2.617-8.139 4.203-2.359 1.413-4.642 2.382-7.215 3.34-3.072 1.19-5.926 2.427-8.75 4.124-3.16 1.815-6.136 3.016-9.547 4.227-1.98.709-1.98.709-4.203 2.149-3.153 1.877-6.404 3.11-9.832 4.402-3.696 1.535-7.23 3.34-10.793 5.16-2.79 1.419-5.582 2.835-8.375 4.25-.71.364-1.421.727-2.152 1.102C490.226 202 490.226 202 488 202c2.486 9.141 5.033 18.242 7.917 27.267 2.131 6.745 4.036 13.551 5.958 20.358 2.742 9.703 5.651 19.329 8.761 28.92 1.977 6.131 3.676 12.275 5.278 18.514 1.305 4.891 2.899 9.69 4.461 14.503 2.409 7.434 4.62 14.886 6.625 22.438 2.248 8.455 4.778 16.784 7.465 25.108 3.285 10.179 6.303 20.419 9.152 30.728 3.101 11.212 6.326 22.351 9.898 33.423 3.267 10.129 6.267 20.319 9.102 30.577.586 2.117 1.172 4.234 1.758 6.352.292 1.056.584 2.113.885 3.201 2.296 8.219 4.817 16.35 7.519 24.444.276.841.553 1.683.838 2.55.244.726.487 1.452.738 2.2.821 3.078 1.194 6.262 1.645 9.417H0V0Z"/><path fill="#E9EAEA" d="M688 0h479c-6.76 9.0068-6.76 9.0068-9.26 12.043-.56.6744-1.11 1.3488-1.69 2.0437-.57.6932-1.15 1.3865-1.74 2.1008-.61.739-1.22 1.4781-1.85 2.2395-4.12 4.9815-8.29 9.9141-12.49 14.8318-3.72 4.3844-7.25 8.9001-10.78 13.4412-3.75 4.8133-7.7 9.4367-11.71 14.0476-3.95 4.5766-7.69 9.2892-11.4 14.0661-4.02 5.161-8.23 10.1442-12.47 15.1199-3.09 3.6189-6.1 7.3008-9.1 10.9884-3.77 4.617-7.56 9.212-11.35 13.81-3.29 3.997-6.58 8.002-9.85 12.018-2.72 3.341-5.49 6.644-8.29 9.925-4.77 5.595-9.38 11.286-13.89 17.094-3.56 4.55-7.25 8.956-11.01 13.339-3.29 3.864-6.45 7.818-9.56 11.83-4.25 5.477-8.68 10.772-13.21 16.016-4.56 5.265-8.966 10.639-13.35 16.046-1.395 1.709-2.791 3.417-4.188 5.125-.734.898-1.469 1.797-2.226 2.723-2.593 3.165-5.198 6.32-7.802 9.476-7.584 9.177-7.584 9.177-15.026 18.469-1.248 1.567-2.528 3.109-3.828 4.633-.658.787-1.315 1.575-1.992 2.386-.59.688-1.179 1.375-1.786 2.083-1.54 2.815-.942 4.042-.152 7.105.552 1.523 1.149 3.03 1.785 4.52.367.859.734 1.718 1.111 2.603.385.888.77 1.775 1.166 2.689.537 1.268.537 1.268 1.084 2.561 2.371 5.51 4.956 10.882 7.663 16.232 4.676 9.247 8.933 18.669 13.191 28.113 3.865 8.563 7.837 17.041 12.079 25.424 3.152 6.253 6.051 12.608 8.911 18.999 7.09 15.835 14.48 31.521 21.94 47.185 10.68 22.427 10.68 22.427 12.76 28.174 1.15 3.4 1.15 3.4 2.75 5.875 1.95 3.285 3.21 6.716 4.59 10.273 1.08 2.627 2.5 4.924 3.97 7.352.79 2.017 1.52 4.053 2.25 6.094.75 2.065.75 2.065 2.25 4.406 1.67 2.781 2.66 5.552 3.75 8.594.75 2.065.75 2.065 2.25 4.406 1.64 2.734 2.69 5.445 3.75 8.438.86 2.375 1.81 4.717 2.75 7.062H576c-6.743-21.353-6.743-21.353-9.438-31.312-2.501-9.102-5.235-18.099-8.145-27.077-2.007-6.224-3.762-12.459-5.397-18.791-2.757-10.328-5.958-20.542-9.224-30.719-2.956-9.217-5.612-18.496-8.186-27.827-2.006-7.231-4.179-14.389-6.483-21.531-1.653-5.153-3.151-10.331-4.565-15.555-2.123-7.84-4.554-15.562-7.044-23.292-1.95-6.067-3.779-12.153-5.495-18.291-1.273-4.487-2.615-8.952-3.961-13.417-2.081-6.909-4.139-13.824-6.165-20.749-1.117-3.811-2.249-7.616-3.401-11.416-8.148-26.892-8.148-26.892-10.496-40.023 6.125-3.062 6.125-3.062 8.035-4.015 3.203-1.599 6.402-3.204 9.59-4.833 6.489-3.295 12.981-6.343 19.754-9.011 2.703-1.177 5.11-2.603 7.621-4.141 1.656-.715 3.314-1.427 4.98-2.117 2.387-1.043 4.697-2.206 7.02-3.383 2.773-1.403 5.513-2.719 8.375-3.938 4.349-1.874 8.54-4.007 12.758-6.16 2.59-1.267 5.192-2.332 7.867-3.402 1.967-.962 3.925-1.942 5.875-2.938 4.322-2.181 8.67-4.165 13.125-6.062 2.469-1.219 4.925-2.461 7.375-3.719 1.933-.943 3.899-1.823 5.878-2.665 3.49-1.488 6.905-3.102 10.317-4.761.603-.292 1.206-.584 1.827-.885 1.91-.926 3.819-1.854 5.728-2.782C635.659 131.58 647.209 126.053 659 121c8.008-3.599 15.89-7.403 23.711-11.387 2.784-1.365 5.592-2.596 8.444-3.81 2.814-1.225 5.569-2.563 8.329-3.905 1.182-.572 2.365-1.144 3.582-1.734 1.853-.8992 3.705-1.7991 5.557-2.6992 1.807-.8778 3.615-1.7533 5.424-2.6289 1.071-.5203 2.142-1.0406 3.245-1.5766C720 92 720 92 723 91c-.714-4.7762-2.471-8.9873-4.281-13.4297-.33-.8192-.66-1.6385-.999-2.4825-1.07-2.6558-2.145-5.3093-3.22-7.9628-1.101-2.7314-2.201-5.4634-3.3-8.1955-.725-1.8032-1.451-3.6062-2.178-5.4091-3.146-7.8109-6.23-15.6443-9.282-23.4926-1.606-4.1306-3.218-8.2587-4.849-12.3794-.315-.7948-.629-1.5897-.953-2.4087-.893-2.2424-.893-2.2424-2.056-4.2802C691 9 691 9 691 5h-2l-1-5Z"/><path fill="#65676C" d="M0 0h161c4.486 17.9427 4.486 17.9427 6.188 25.1875 2.051 8.6681 4.148 17.3246 6.259 25.9784.559 2.2975 1.117 4.5954 1.675 6.8934 2.125 8.7549 4.262 17.5063 6.421 26.2527 1.197 4.8557 2.384 9.7135 3.571 14.5716.586 2.3904 1.175 4.7804 1.768 7.1694.841 3.386 1.668 6.776 2.493 10.166.251.996.501 1.993.76 3.02 2.313 9.614 4.325 19.526 1.021 29.073-.418 1.249-.837 2.498-1.268 3.785-.462 1.301-.925 2.602-1.388 3.903-.47 1.376-.937 2.752-1.402 4.13-.924 2.725-1.86 5.445-2.808 8.161-1.387 3.988-2.722 7.991-4.043 12.002-1.398 4.242-2.825 8.473-4.247 12.707-1.565 4.666-3.127 9.333-4.688 14-.368 1.098-.737 2.196-1.117 3.327-3.274 9.793-6.319 19.647-9.223 29.556-3.004 10.21-6.315 20.307-9.725 30.389-3.391 10.047-6.535 20.154-9.435 30.353-2.578 8.917-5.541 17.703-8.514 26.495-2.562 7.59-4.969 15.216-7.298 22.88-6.58 21.281-13.388 42.491-20.192 63.701-5.01 15.591-5.01 15.591-9.8685 31.231-1.1444 3.737-2.3124 7.467-3.4825 11.197-.2167.691-.4334 1.383-.6567 2.095-.89 2.839-1.7803 5.678-2.6721 8.516-.6623 2.109-1.3231 4.218-1.9837 6.326-.3882 1.237-.7765 2.474-1.1765 3.749-1.1902 3.916-2.1079 7.277-2.093 11.373-.0026.694-.0052 1.389-.0078 2.105.1921 3.916.6998 7.81 1.1328 11.707H0V0Z"/><path fill="#A1A5AD" d="M526 0h162l1 5h2c.231.73863.461 1.47727.699 2.23828.326 1.01449.652 2.02899.989 3.07422.313.9861.626 1.9723.949 2.9883 1.112 3.0189 2.33 5.8532 3.685 8.7651 2.495 5.4571 4.735 10.9811 6.893 16.5786.378.9723.756 1.9445 1.146 2.9462 1.195 3.0728 2.386 6.1471 3.577 9.2218 1.568 4.0493 3.14 8.0974 4.714 12.1445.562 1.4501.562 1.4501 1.135 2.9295 2.57 6.5914 5.327 13.0641 8.317 19.4756C724 88 724 88 724.026 90.167c-1.644 2.9374-4.043 3.6159-7.073 4.9619-.608.2758-1.216.5516-1.843.8357-1.947.8799-3.903 1.7394-5.86 2.5979-1.941.8659-3.879 1.7355-5.817 2.6085-1.767.794-3.539 1.576-5.311 2.359-2.838 1.336-5.453 2.828-8.122 4.47-1.589.682-3.194 1.328-4.812 1.938-4.565 1.72-8.85 3.845-13.188 6.062-2.624 1.336-5.249 2.669-7.875 4-.643.33-1.286.66-1.949 1-3.466 1.75-6.931 3.324-10.555 4.719-8.08 3.167-15.854 7.048-23.683 10.781-2.408 1.146-4.816 2.29-7.225 3.434-1.487.706-2.975 1.414-4.461 2.123-4.4 2.093-8.829 4.103-13.292 6.055-2.551 1.156-4.97 2.494-7.398 3.888-4.289 2.385-8.578 4.334-13.175 6.043-2.887 1.158-5.611 2.555-8.387 3.957-1.228.578-2.459 1.151-3.691 1.719-.635.292-1.27.585-1.924.886-1.302.598-2.604 1.195-3.906 1.79-2.796 1.291-5.498 2.617-8.139 4.203-2.359 1.413-4.642 2.382-7.215 3.34-3.072 1.19-5.926 2.427-8.75 4.124-3.16 1.815-6.136 3.016-9.547 4.227-1.98.709-1.98.709-4.203 2.149-3.153 1.877-6.404 3.11-9.832 4.402-3.696 1.535-7.23 3.34-10.793 5.16-2.79 1.419-5.582 2.835-8.375 4.25-.71.364-1.421.727-2.152 1.102C490.226 202 490.226 202 488 202c2.486 9.141 5.033 18.242 7.917 27.267 2.131 6.745 4.036 13.551 5.958 20.358 2.742 9.703 5.651 19.329 8.761 28.92 1.977 6.131 3.676 12.275 5.278 18.514 1.305 4.891 2.899 9.69 4.461 14.503 2.409 7.434 4.62 14.886 6.625 22.438 2.248 8.455 4.778 16.784 7.465 25.108 3.285 10.179 6.303 20.419 9.152 30.728 3.101 11.212 6.326 22.351 9.898 33.423 3.267 10.129 6.267 20.319 9.102 30.577.586 2.117 1.172 4.234 1.758 6.352.292 1.056.584 2.113.885 3.201 2.296 8.219 4.817 16.35 7.519 24.444.276.841.553 1.683.838 2.55.365 1.089.365 1.089.738 2.2.821 3.078 1.194 6.262 1.645 9.417H368c1.816-5.449 3.496-10.344 5.812-15.5 2.211-5.069 4.158-10.142 5.938-15.375 2.389-6.979 5.128-13.769 8-20.563 4.955-11.722 9.55-23.565 14.07-35.461 1.271-3.34 2.546-6.678 3.825-10.015.591-1.544.591-1.544 1.194-3.12 1.137-2.904 2.325-5.78 3.536-8.654 2.036-4.834 3.959-9.704 5.849-14.596 3.558-9.18 7.18-18.334 10.819-27.482.656-1.651 1.313-3.302 1.969-4.953 1.367-3.439 2.734-6.878 4.102-10.316l5.139-12.927c6.424-16.164 12.855-32.325 19.321-48.472 3.046-7.605 6.089-15.212 9.09-22.836.253-.642.506-1.284.766-1.946 1.282-3.259 2.555-6.522 3.823-9.787 2.368-6.081 4.756-12.119 7.474-18.056 8.225-18.262 11.401-37.4 14.988-56.975 1.4-7.625 2.855-15.239 4.316-22.853.269-1.399.537-2.799.805-4.198.41-2.137.82-4.273 1.23-6.409.973-5.073 1.941-10.147 2.908-15.221 3.538-18.5699 7.115-37.1319 10.757-55.6817.503-2.562 1.005-5.1242 1.507-7.6866 2.591-13.238 5.251-26.4533 8.176-39.6221.194-.8748.388-1.7495.588-2.6508.169-.75593.338-1.51186.513-2.2907.571-2.76976 1.02-5.56354 1.485-8.3531Z"/><path fill="#D8D9DB" d="M723 92c-.596 4.6523-1.451 9.086-2.672 13.613-.498 1.859-.498 1.859-1.006 3.755-.357 1.315-.715 2.63-1.072 3.944-.367 1.36-.733 2.719-1.099 4.078-1.045 3.872-2.097 7.741-3.151 11.61-.254.935-.507 1.871-.769 2.834-2.26 8.327-4.655 16.6-7.169 24.854-2.517 8.268-4.739 16.593-6.884 24.964-1.433 5.569-2.949 11.095-4.616 16.598-2.578 8.529-4.78 17.15-6.976 25.784-2.051 8.033-4.276 16.004-6.586 23.966-4.134 14.311-8.22 28.619-11.921 43.049-1.599 6.203-3.341 12.344-5.19 18.477-2.008 6.731-3.735 13.529-5.482 20.332-1.725 6.661-3.583 13.269-5.54 19.865-4.254 14.469-8.27 29.003-12.284 43.541-.776 2.808-1.553 5.615-2.331 8.422-3.962 14.306-7.889 28.621-11.736 42.959-2.807 10.459-5.663 20.903-8.543 31.342-.578 2.095-1.153 4.19-1.728 6.285-.847 3.089-1.698 6.176-2.55 9.263-.257.941-.514 1.883-.779 2.853-.238.857-.475 1.714-.72 2.597-.208.754-.415 1.508-.629 2.285C611 501 611 501 610 502c-2.521.088-5.014.115-7.535.098-1.13-.002-1.13-.002-2.283-.005-2.415-.005-4.83-.018-7.244-.031-1.634-.005-3.267-.009-4.901-.013-4.012-.011-8.025-.028-12.037-.049-3.358-10.385-6.541-20.788-9.438-31.312-2.505-9.101-5.235-18.099-8.145-27.077-2.007-6.224-3.762-12.459-5.397-18.791-2.757-10.328-5.958-20.542-9.224-30.719-2.956-9.217-5.612-18.496-8.186-27.827-2.006-7.231-4.179-14.389-6.483-21.531-1.653-5.153-3.151-10.331-4.565-15.555-2.123-7.84-4.554-15.562-7.044-23.292-1.95-6.067-3.779-12.153-5.495-18.291-1.273-4.487-2.615-8.952-3.961-13.417-2.081-6.909-4.139-13.824-6.165-20.749-1.117-3.811-2.249-7.616-3.401-11.416-8.148-26.892-8.148-26.892-10.496-40.023 6.125-3.062 6.125-3.062 8.035-4.015 3.203-1.599 6.402-3.204 9.59-4.833 6.489-3.295 12.981-6.343 19.754-9.011 2.703-1.177 5.11-2.603 7.621-4.141 1.656-.715 3.314-1.427 4.98-2.117 2.387-1.043 4.697-2.206 7.02-3.383 2.773-1.403 5.513-2.719 8.375-3.938 4.349-1.874 8.54-4.007 12.758-6.16 2.59-1.267 5.192-2.332 7.867-3.402 1.967-.962 3.925-1.942 5.875-2.938 4.322-2.181 8.67-4.165 13.125-6.062 2.469-1.219 4.925-2.461 7.375-3.719 1.933-.943 3.899-1.823 5.878-2.665 3.49-1.488 6.905-3.102 10.317-4.761.603-.292 1.206-.584 1.827-.885 1.91-.926 3.819-1.854 5.728-2.782C635.659 131.58 647.209 126.053 659 121c8.008-3.599 15.89-7.403 23.711-11.387 2.169-1.064 4.366-2.072 6.589-3.018 3.451-1.469 6.818-3.076 10.184-4.732 1.182-.577 2.365-1.153 3.582-1.748 1.854-.9057 3.706-1.8135 5.557-2.7256 1.805-.889 3.614-1.7702 5.424-2.6511 1.071-.5256 2.142-1.0511 3.245-1.5925C720 92 720 92 723 92Z"/><path fill="#ADB1B6" d="M526 0h162l1 5h2l.699 2.23828c.326 1.01449.652 2.02899.989 3.07422.313.9861.626 1.9723.949 2.9883 1.112 3.0189 2.33 5.8532 3.685 8.7651 2.495 5.4571 4.735 10.9811 6.893 16.5786.378.9723.756 1.9445 1.146 2.9462 1.195 3.0728 2.386 6.1471 3.577 9.2218 1.568 4.0493 3.14 8.0974 4.714 12.1445.375.9668.75 1.9335 1.135 2.9295 2.57 6.5914 5.327 13.0641 8.317 19.4756C724 88 724 88 724.026 90.167c-1.644 2.9374-4.043 3.6159-7.073 4.9619-.608.2758-1.216.5516-1.843.8357-1.947.8799-3.903 1.7394-5.86 2.5979-1.941.8659-3.879 1.7355-5.817 2.6085-1.767.794-3.539 1.576-5.311 2.359-2.838 1.336-5.453 2.828-8.122 4.47-1.589.682-3.194 1.328-4.812 1.938-4.565 1.72-8.85 3.845-13.188 6.062-2.624 1.336-5.249 2.669-7.875 4-.643.33-1.286.66-1.949 1-3.466 1.75-6.931 3.324-10.555 4.719-8.08 3.167-15.854 7.048-23.683 10.781-2.408 1.146-4.816 2.29-7.225 3.434-1.487.706-2.975 1.414-4.461 2.123-4.4 2.093-8.829 4.103-13.292 6.055-2.551 1.156-4.97 2.494-7.398 3.888-4.289 2.385-8.578 4.334-13.175 6.043-2.887 1.158-5.611 2.555-8.387 3.957-1.228.578-2.459 1.151-3.691 1.719-.635.292-1.27.585-1.924.886-1.302.598-2.604 1.195-3.906 1.79-2.796 1.291-5.498 2.617-8.139 4.203-2.359 1.413-4.642 2.382-7.215 3.34-3.072 1.19-5.926 2.427-8.75 4.124-3.16 1.815-6.136 3.016-9.547 4.227-1.98.709-1.98.709-4.203 2.149-3.153 1.877-6.404 3.11-9.832 4.402-3.696 1.535-7.23 3.34-10.793 5.16-2.79 1.419-5.582 2.835-8.375 4.25-.71.364-1.421.727-2.152 1.102C490.226 202 490.226 202 488 202l1 5-2-1c.285-11.775 2.82-23.148 5.147-34.652 1.003-4.958 1.989-9.919 2.977-14.881.517-2.594 1.034-5.188 1.552-7.783 2.457-12.306 4.839-24.627 7.205-36.951 3.593-18.703 7.206-37.4028 10.857-56.0949.415-2.1236.828-4.2473 1.241-6.3712 2.323-11.9497 4.754-23.8669 7.391-35.7519.198-.8975.397-1.7949.601-2.7196.262-1.17506.262-1.17506.53-2.37386C525.076 5.62893 525.531 2.81251 526 0Z"/><path fill="#70747D" d="M193 137c-.731 5.563-2.35 10.742-4.02 16.078-.299.967-.599 1.933-.908 2.929-.635 2.042-1.271 4.082-1.909 6.122-.967 3.095-1.926 6.192-2.884 9.289-.62 1.991-1.24 3.982-1.861 5.973-.282.914-.565 1.827-.856 2.769-1.676 5.333-3.563 10.52-5.701 15.686-1.149 2.875-1.994 5.791-2.798 8.779-2.71 9.766-5.57 19.504-9.125 29-1.4 3.756-2.566 7.509-3.625 11.375-2.342 8.425-5.164 16.685-7.964 24.967-3.424 10.149-6.607 20.356-9.536 30.658-2.578 8.917-5.542 17.703-8.515 26.495-2.562 7.59-4.969 15.216-7.298 22.88-6.58 21.281-13.388 42.491-20.192 63.701-5.012 15.6-5.012 15.6-9.8729 31.248-1.1296 3.686-2.2852 7.363-3.4429 11.039-.4336 1.38-.8672 2.759-1.3008 4.139-.6614 2.104-1.3236 4.208-1.9878 6.312-3.388 10.7-3.388 10.7-6.2036 21.561h-1c-.1701-.764-.3403-1.529-.5156-2.316-1.3469-5.954-2.773-11.865-4.3633-17.758-1.9815-7.381-3.9078-14.774-5.8086-22.176-.1777-.691-.3554-1.382-.5384-2.095-4.3333-16.863-8.6135-33.74-12.8965-50.616-.5574-2.196-1.1149-4.392-1.6723-6.588-1.073-4.227-2.1452-8.454-3.217-12.681-.1726-.681-.3453-1.362-.5232-2.064-2.2745-8.972-4.5268-17.95-6.7619-26.933-1.9961-8.014-4.0693-15.998-6.2657-23.961-2.2725-8.347-4.4159-16.706-6.383-25.13-2.1034-8.977-4.3217-17.924-6.5545-26.87-.1976-.791-.3953-1.583-.5989-2.399-2.1246-8.497-4.2618-16.986-6.6511-25.413-1.7781-6.274-3.4923-12.561-5.125-18.875-.2278-.852-.4557-1.704-.6904-2.582l-.6143-2.41c-.1828-.703-.3657-1.405-.5542-2.129-.3208-2.417-.2833-3.773.7339-6.004 2.0899-1.238 2.0899-1.238 4.9375-2.312 1.0971-.426 2.1942-.851 3.3245-1.289 1.2335-.462 2.4671-.923 3.738-1.399 2.0204-.778 4.0382-1.562 6.056-2.347 1.4907-.58 2.9822-1.158 4.4742-1.735 9.507-3.683 18.9329-7.566 28.3662-11.433 5.301-2.172 10.6048-4.338 15.9083-6.505 1.0395-.424 2.079-.849 3.15-1.287 21.6183-8.832 43.2593-17.607 64.9533-26.251 6.677-2.663 13.341-5.353 19.994-8.075 1.113-.454 1.113-.454 2.247-.918 3.61-1.475 7.219-2.953 10.825-4.438 1.295-.53 2.59-1.059 3.885-1.589 1.14-.468 2.279-.937 3.453-1.419C191 137 191 137 193 137Z"/><path fill="#5F6062" d="M0 0h51l-3 14c-.6741 3.8113-1.3259 7.6168-1.9375 11.4375-.3418 2.0873-.6843 4.1746-1.0273 6.2617l-.5191 3.1695c-2.1035 12.762-4.3449 25.4838-6.9458 38.154-1.5075 7.4462-2.7961 14.9256-4.0703 22.4148-2.1623 12.7095-4.5141 25.3705-6.9795 38.0235-2.1369 10.992-4.136 22-6.0205 33.039-1.5046 8.803-3.0321 17.599-4.6875 26.375-.1547.831-.3094 1.662-.4687 2.518-.6683 3.495-1.3512 6.627-2.6172 9.97-1.0758 5.385.3798 9.731 1.8359 14.949.2533.963.5066 1.925.7676 2.917 1.235 4.653 2.5334 9.288 3.8366 13.922 3.0263 10.782 5.8318 21.604 8.5208 32.474.4283 1.723.8568 3.447 1.2856 5.17.891 3.581 1.7809 7.163 2.67 10.745 2.0196 8.132 4.0546 16.26 6.0885 24.388.8207 3.28 1.6407 6.561 2.4607 9.841.3852 1.541.7706 3.082 1.1562 4.623.8885 3.551 1.7748 7.103 2.6547 10.656 2.3316 9.402 4.7799 18.77 7.2564 28.135 4.6083 17.448 9.0624 34.932 13.4279 52.442.2756 1.105.5512 2.21.8351 3.349 2.4699 9.911 4.9313 19.823 7.3898 29.736.7367 2.969 1.4751 5.938 2.2137 8.906.4778 1.924.9527 3.849 1.4274 5.773 1.4516 5.84 3.0242 11.607 4.7903 17.36.9761 3.349 1.6711 6.702 2.3437 10.126.2514 1.256.5027 2.511.7617 3.805C85 498 85 498 85 502H0V0Z"/><path fill="#B5B3AD" d="M1227 0h273v378h-1V71l-11-2c-3.64-.8963-7.26-1.8214-10.88-2.8008-1.02-.2726-2.04-.5452-3.09-.826-2.2-.5864-4.4-1.1745-6.6-1.7642-5.91-1.5882-11.84-3.1615-17.76-4.734-1.22-.3231-2.44-.6463-3.69-.9792-12.53-3.3212-25.1-6.5234-37.67-9.7083-15.13-3.838-30.25-7.7215-45.34-11.7444-12.33-3.2864-24.68-6.4909-37.03-9.6931-19.34-5.0124-38.65-10.0997-57.95-15.2607C1254.36 7.85104 1240.69 4.38313 1227 1V0Z"/><path fill="#DDDEE0" d="M688 0h73c-11.623 29.0573-11.623 29.0573-17.151 42.5049-.984 2.3936-1.965 4.788-2.947 7.1826-3.713 9.0504-7.471 18.0808-11.282 27.0905-1.576 3.7272-3.136 7.4569-4.62 11.222h-2c-8.072-19.3873-15.963-38.8264-23.477-58.4375-3.404-9.4773-3.404-9.4773-7.635-18.5859C691 9 691 9 691 5h-2l-1-5Z"/><path fill="#9FA5AE" d="M526 0h120c-3.495 1.74741-6.074 2.59468-9.832 3.41895-1.188.26415-2.377.52831-3.602.80047-.638.13925-1.276.27849-1.933.42196-2.763.60339-5.524 1.21868-8.285 1.83317-1.48.32932-2.96.65805-4.44.98623-8.566 1.90069-17.116 3.86812-25.666 5.83612-1.601.368-3.202.736-4.803 1.1039-4.038.928-8.076 1.8567-12.113 2.7855-4.131.9501-8.262 1.8994-12.392 2.8489-8.047 1.8495-8.047 1.8495-16.093 3.7001-1.357.312-2.714.6236-4.071.9348-3.193.7328-6.382 1.475-9.57 2.2304-1.75.4133-1.75.4133-3.535.8349-1.025.2444-2.049.4889-3.104.7407C524 29 524 29 521 29c1.416-9.7266 3.187-19.32835 5-29Z"/><path fill="#C7BDB6" d="M1500 459v43h-49c5.64-5.637 5.64-5.637 8.27-8.086.57-.535 1.15-1.069 1.74-1.62.6-.551 1.19-1.102 1.8-1.669.62-.577 1.25-1.153 1.89-1.747 3.74-3.465 7.52-6.878 11.39-10.214 2.28-1.988 4.53-4.011 6.79-6.039 1.24-1.123 1.24-1.123 2.52-2.27 1.8-1.634 3.6-3.278 5.39-4.929 1.34-1.232 1.34-1.232 2.71-2.488.81-.755 1.63-1.509 2.47-2.286C1498 459 1498 459 1500 459Z"/><path fill="#787C85" d="M83 488c3.3512 1.265 6.369 2.702 9.4258 4.566.796.486 1.592.971 2.4121 1.471.8166.503 1.6332 1.007 2.4746 1.525.836.508 1.6719 1.015 2.5332 1.538 4.5783 2.807 4.5783 2.807 6.1543 3.9v1H85c-2.25-10.125-2.25-10.125-2-14Z"/></g><defs><clipPath id="a"><path fill="#fff" d="M0 0h1500v502H0z"/></clipPath></defs></svg>